# xmcd
#
# Track frame offsets:
# 182
# 4655
# 25332
# 42900
# 62420
# 70085
# 92555
# 119550
# 142212
# 163862
# 186557
# 191135
# 211192
# 219915
# 241125
#
# Disc length: 3473 seconds
#
#
# Revision: 6
# Processed by: cddbd v1.4PL0 Copyright (c) Steve Scherf et al.
# Submitted via: FreeRIP 2.51 
#
DISCID=d90d8f0f
DTITLE=Faith Evans - Keep The Faith
DYEAR=1998
DGENRE=R&B
TTITLE0=Faith (Intro)
TTITLE1=Love Like This
TTITLE2=All Night Long  (feat Puff Daddy)
TTITLE3=Sunny Days
TTITLE4=Tears Away  (Interlude)
TTITLE5=My First Love
TTITLE6=Anything You Need
TTITLE7=No Way
TTITLE8=Life Will Pass You By
TTITLE9=Keep The Faith
TTITLE10=Special Place (Interlude)
TTITLE11=Never Gonna Let You Go
TTITLE12=Stay (Interlude)
TTITLE13=Caramel Kisses  (feat 112)
TTITLE14=Lately I
EXTD=
EXTT0=
EXTT1=
EXTT2=
EXTT3=
EXTT4=
EXTT5=
EXTT6=
EXTT7=
EXTT8=
EXTT9=
EXTT10=
EXTT11=
EXTT12=
EXTT13=
EXTT14=
PLAYORDER=
